<svg viewBox="850 140 700 650" clip-path="url(#a)" overflow="hidden" text-rendering="optimizeLegibility" xmlns="http://www.w3.org/2000/svg" xmlns:xlink="http://www.w3.org/1999/xlink">
	<clipPath id="a">
		<path d="m0 0h2534.65v1073.27h-2534.65z"/>
	</clipPath>
	<g fill="none" stroke="#feffff" stroke-width="2">
		<path d="m600.1 1072.77.43-.46.47-.59.36-.49.27-.42.33-.58.29-.63.18-.48.27-.98 1.56-8.15.05-.46.02-.46v-.52l-.05-.48-.06-.43-.01-.05v-.04l.01-.03.01-.02.02-.01h.02l.02.02.01.02.02.04 1.16 3.94.08.22.12.18.14.17.17.12.26.13.25.09.25.05.3.04.44-.13.05-.01h.05l.05.01.05.01.04.02.04.03.03.03.03.04.02.04.02.05.01.05v.05l-.01.05-.01.05-.02.04-.03.04-.04.04-.04.03-.05.02-.46.13-.31.09-.47 4 .33.03.17.01.18.02.67 2.42.43-.12.49.76.03.01.56-.16.01-.02.08-.02.31-.09.59-.17.05.03.24-.07.23-.07.24-.07.24-.07.24-.07.24-.07.03-.05-.01-.21-.05-.68.39-.11.35-.1-1.82-6.23-.34.1-.44.13-.05.01h-.05l-.06-.01-.05-.01-.05-.02-.04-.03-.04-.04-.03-.04-.02-.05-.01-.05v-.05-.05l.01-.05.02-.05.03-.04.03-.04.04-.03.04-.02.05-.02.06-.02 1.11-.32.2-.06-.04-.33-.03-.18-.57-2.73v-.04l.02-.04.04-.02h.04l.02.01.02.02.02.04.05.09.04.07.11.15.16.2.3.35.49.5.25.28.22.35.17.37.11.29 1.55 5.36.1.23.11.18.14.18.16.16.16.14.18.12.22.11.19.07.27.06.3.03.3-.01 1.41-.19.73-.07.77-.04h.74l1.23.03 1.45.12 1.49.24 1.59.37 1.55.5 1.75.74 1.71.85 1.55.93 1.36.95 1.2.96h238.41l2.16-1.83 2.39-3.93.56-2.3-.84-3.45-2.75-3.85-.7-.24-4.98-1.21-4.46-5.12-2.4-2.67-1.02-1.44-.5-.4-3.3-.42-2.44-2.32-4.3-5.25-2.44-2.32-1.28-3.55-7.12-6.77-3.25-3.09-5.4-6.03.64-.53-.04-.76-.55-.43-1.16-.4-1.49-.22-1.22.03-1.76-1.52 4.1-2.49 2.28-3.64 1.65-5.41-11.6-11.03-1.25-2.35-9.76-9.28-1.25-2.36-4.88-4.64-.91-4.43-1.56-1.55.03-2.35-1.41-2.3-1.31-1.93-1.58-2.27-2.92-1.98-1.39-1-2.12-1.04-.88-.85.17-.81-1.78-2.11-2.87-1.42-2.84-1.69-1.77-.78-1.97-.86-6.04-3.42-2.16-1.25-5.94-3.43-.43-.53-.37-.59-.22-.6-.15-.69-.45-2.78-.07-.44-.05-.23-.07-.23-.31-.44-1.15-1.36-1.66-1.63-.48-.94-1.99-2.36-2.93-3.47-3.2-3.57-6.16-6.89-.21-.24-2.87-2.49-.71-1.02.31-1.32 3.58-15.3.79-3.1 2.33-9.15 2.39-9.38.13-.52 5.84-6.83 6.14-7.18 3.57-4.18 1.05-1.14 4.64-5.07 6.12-6.68 5.32-5.81 1.01-1.17 6.15-7.13 11.62-13.49 5.1-5.92 4.55-5.28.12-.13 7.94-5.7 6.81-4.9 6.79-4.88 6.91-4.96 7.03-5.03 6.73-4.94 6.93-5.07 6.92-5.06 2.11-1.54 3.13-2.85 1.17-.77 1.86-1.22 3.73-2.93 1.83-1.43 4.02-4.09 5.35-6.14.29-.33 15.11-18.78.31-.78.02-1.19.58-.97.12-.28-.31-.23.01-.23.34-.14-.48-.52.02-1.03.15-.97-.2-.88.02-2-.18-.44.16-.6.11-.57-2.96-2.85-.18-.17 5.51-8.57 3.66-5.71.44-.66 3.57-5.41.5-.76 2.83-4.32.93-1.83.53-1.89.35-2.06-.5-6.82-.2-2.68-.11-2.75.22-2.55.46-2.16.54-1.78.95-2.22 1.6-2.63 3.74-4.29 1.47-2.24 1.68-3.52-.81-5.03.07-2.01-.9-4.89.12-.4.21.1 1.1 6.14.24.61.66 3.98.25 1.49.06.49.23 3.9-.02.13-.04.13-2.09 3.42-.53.78-.55.74-1.89 2.23-.37.48-.34.5-.3.46-.36.6-.33.61-.3.65-.26.67-.25.68-.19.64-.16.59-.13.6-.18 1.12-.09 1.17-.01 1.12.4 4.53 1.3-.01h.15l.01.07.08 1.06.06.72.31 4.09 3.37 1.17 1.12.39 2.66-5.04 1.06-2.29-.06-1.67.24.06.23.06.23-.92.1-.55.11.02.12-.76-.09-.01.14-.81.05-.34.07-.69-.03-1.8-.18-2.83-.36-4.4.04-.27.16-.29.25-.22.26-.13.25-.06.43-.01.54-.02.28.09.24.13.21.24.19.44.2 1.82h-.06l.09.88.16-.01.12.76.35-.06 1.42-.23.42 3-.14.02.12.84.08-.01.07-.02.13.84.28-.03.38-.04.56 3.86.76-.13 7.61-2.89 2.11-1.85-.19-.24-.83.69-.27-.05-.15-.34-.59-1.54-3.21 1.17-3.75 1.37-.82-9.88.75-.05-.06-.99-.79.03-.02-.43-5.1-3.14-1.03-3.54.06-.15-.68-3.53.23-.04.21.19.62 2.67 5.83.46 1.29.01 2.14-1.01 2.01.54.99-.98 1.78-.61 1.26.19 1.02.58.45.84-.87 1.76.17.96 1.66 1.33 1.93.49 1.45 1.07 1.42.82 2.38-.36 3.16-2.13 6.16-5.67 8.03-7.87 2.63-3.09 1.44-1.69 2.9-4.2 4.58-8.23 9.8-22.18 2.02-4.29 2.82-2.93 2.97-2.4 4.86-3.56 33.1-23.36 30.98-21.82 7.42-5.3 7.16-5.11 1.4-1 5.46-3.3 4.74-3.22 4.11-3 5.13-3.67.26-.26.25-.5.65-2.41-.05-.72.28-.29 2.58-2.5.59.04.21.26.43.01 1.28-.65 1.46-1.79 1.34-.68.37-.16-.41-3.31-.01-1.18.31-1.21.75-1.49.7-.83 2.4-1.98 2.55-2.09 4.35-2.1 6.16-2.98 1.85-.81 7.23-3.18 7.42-3.26 6.54-2.89.56-.24 6.31-2.69-.23-4.96 4.33-3.5 4.77-2.25.12-5.54 9.55-3.03 9.21-3.76 9.33-3.13 14.24-5.17-.4 1.91 3.44.26-.87-2.94 12.59-4.55 3.75 5.92 15.5-.38 2.33-2.45 3.58-.09 7.13-1.37 2.33-2.45 8.29-2.59 9.23-4.6.72-3.42 2.85-5.45 8.13-9.17 4.76-.71 22.57-4.13 4.74-1.31 9.46-3.81 6.52-1.09 1.8-.3 7.1-2.56 9.51-1.42 11.92-2.47 1.15-.24 11.9-1.48 8.29-2.59 9.54-.22 2.36-1.25 2.38-.06 20.28-.48 2.36-1.25 8.35-.2 3.55-1.28 7.06-.17 2.49-.06 4.85 3.48 3.59.51 1.08-4.81 4.76-.71 3.54-1.88 2.7-.84 2.89-.9.03-2.89 8.34-1.87 3.8 2.86 1.7-1.75.83-1.44-.04 1.32.4.07-.07 1.57-.12 2.37-.1 1.77-.02.37h-.49l-.07 1.48-.19.04-.03 2.69-.21 4.3.48.01-.13 2.56.47.21.3 3.72.04.8-2.52 2.8-1.4.62-.07-1.4h-.77l-1.1 1.02-1.42 1.55-.7 1.46-.55 2.21-.35 2.4.84 1.75.66.91-.64.26-2.4.88-.91.41-.51.58-.39.28.48.08.17.47.35.06.31-.59 1.02-.69.77-.17 2.02-.54.67-.38.13-.6.09-.15.64-.85 3.86-1.18 4.02.95 2.36-.2.79-.51.53.26 1.73.44 1.08-.7 3.78-.98.71.93 2.68.21 1.04-.47 1.07-.39.03-1.28.92-.21 1.19-1-.06-3.26-.84-.82-2.97-1.75-.95-.22-.41.91.23 1.03 1 1.45-.04 1.75-.92.31-2.42.26-2.09-.89.29-1.16 1.15-1.08 2.27-.9.28-.64-.7-.73-2.64.84-1.63.3-2.25-1.04-.29-.72-2.34-.45-1.26.58-2.37-.88-.37-1.17-.02-.75.57-4.51.22-1.72 1.48-3.68-1.35-.59-.19-1.93 1.49-1.76-.12-1.23.06-1.75.74-.23 1.91 2.67.38.15 1.23.49 1.48.43.55-.19.37-.82.28.05.56.1 1.49.25 3.41 2.27 5.04.71 1.35-.81 5.56 3.71 3.8 1.06 1.66-.95 3.3 2.27 6.71 2.82 6.28-.12 10.55-1.64 7.39-2.09 15.25-1.58 8.35.78 6.56.75 3.96.33 13.21-1.8 8.3-1.1 12.46-1.44 1.72 3.67 5.4-.03 9.63 2.63 10.08-.89 5.33-.18 10.05-.55 4.3-.24 8.42-.75 8.21-.29 16.18-.48 9.92.27 9.27.92.48 1.08.26-.02.04-.56.24-.4 6.36.3 8.27-.07 2.73-.06 4.51-.2 16.7-.36 10.84.45 18.05 1.69 15.31 1.31 13 2.67 1.78-3.8 5.52 1.48 4.85 1.88 3.87 1.14 1.9.36.28.05.5.1-1.79 4.35.18.16-.89 1.69-.52.43.44.57.32-.23-.11 1.02-.65.09-1.64 4.76-.1.92.64.22.73.26.5-.71h.03l.03-.1.42.07 1.23-4.78-.38-.48v-.15l.6-.42.12.05.17-.47.46-1.57.29-.79.6.57.66-.93.05.06 1.31 1.63-.13.34-.54 1.44.86 1.09.64.29 1.29.58 1.23.55 1.28.58 1.74.79.42.19 1.83-3.98.17-.37-9.41-4.33.58-1 9.8 4.39 17.66 9.31 2.86 1.31 28.48 12.98-1.54 5.78 3.78 1.4 6.84 3.3 6.52 3.53 3.66 2.28 6.49.29 3.89-.01 5.27.08 3.01-.27 2.69-.27 3.41.07 4.94 1.03 1.82.08 1.72-.25 6.65 1.57 1.56.51 2.36-1.25 5.6-3.26 3.71-.95 2.14-.65 12.26-2.81 3.65-1.08 8.28-1.87 7.65-1.96 5.16-1.39 6.26-.06 1.68.31 4.49 1.03 2.62.52 7.15-2.13 3.01-1.56 2.72-1.06.96-.36.39-.4 1.17-.87 1.57-1.57 1.43-1.88 1.05-.85 1.17-.69 1.35-.63 1.34-.25 2.51-.22 2.65-.56 1.81-.81 2.31-1.53 1.99-1.82 2.02-2.55.73-1.08.42-1.22.07-.73-.02-1.23.25-1.4.57-1.41.77-.69.13-.11 1.71 2.57.76 3.23.19 3.2-.61 4.11.63 1.78.64-.14 3.89-.85.51-.19.29-.74.65.02.05.45 1.29-.46.12.36-.3.82-.42.96 2.43 6.39 2.29 2.58 1.25 1.38.28.5.34.66.26-.14.18-.1.35-.19-.15-.24-.49-.85.26-.16-.59-1.95-.02-.09-.88-2.37-1.12-3.13-.27-.92-.63-1.65-.59-1.59-.47.12-.64-.1-.16-.48.74-.4-.43-.81-.04-.47 2.69-.18.55-.07-.26-.59-3.2-3.58-3.94-4.39-1.19-1.5-1.41-1.97 1.44.4.13.37.38.23.75.06 1.13.38 1.09-.02.8-.29 1.24-.43 1.31.12 1.81-1.32 1.5-.58 1.09.66 1.92.98 2.1-.03 2.14-1.1 2.85-1.23.86-.05.46.31.64.07h.82l.52-.22 2.46-.18 1.73.29 1.38.27 1.07.52.89.48.58-.23.41-.5 1.14-.13 1.1.42 1.06.18.76-.18 2.21.22 3.27.8-1.09 1.29-.09 2.14 3.08-.53 1.87-.03 2.26-.63 2.43-1.07 3.59-2.06 5.25-3.08 7.43-4.42 7.15-4.08 1.41-.8 7.5-4.73.73-.46 8.19-5.67 5.75-2.39 6.16-2.26 10.48-3.39 3.67-.18 4.47 1.15 2.28-.12 10.17-4.16 10.52.68 9.88-1.97 10.74-1.44 9.78-4.16 5.53-3.26.91-1.43 2.1-1.73.52-.11 7.84-1.83 3.27-.63 6.4-.11 4.67-.71 3.76-1.16 3.65-1 8.37-2.35 3.94-.3 2.45-.83 5.8-4.44 3.3-1.42 3.22-.68 6.61-1.2 6.33-.95 7.75-1.4 3.45-1.28 1.89-2.02 1.69-1.72 3.12-2.17 2.41-1.82 3.43-1.79 1.01-.36 7.44-2.24 11.81-3.4 2.07-.6 7.45-1.93 8.43-2.1 3.43-.7 4.61-1.1 1.54-1.11 2.12-.58 2.37-.69 1.36-.42.21-4.35-.02-.55.19-2.98.06-.07.06.05-.02.09-.18 2.89v.15.2l.1.03.35.01.52-.05 1.18-.26 1.07-.23.1-.1-.21-1.1-.01-.13.04-.02.04.02.02.1.21 1.11.11.05.28.02 1.53-.35 2.96-.62 2.65-.6.29-.08.14-.15.05-.15.01-.16-.19-.71v-.07l.04-.07h.07l.03.03.02.08.18.7.09.21.11.1.12.07h.2l.62-.14.88-.24 1.05-.34.98-.22 1.33-.28 1.51-.24.88-.14.58-.13.18-.14.11-.17.01-.22-.1-.49-.08-.27-.01-.1.02-.06.06-.03.06.02.04.06.01.11.03.23.08.48.04.2.04.09.1.05h.16l.34-.05.92-.12.88-.17.67-.12.73-.1.89-.08 1.35-.01 1.26-.03.2-.07.18-.13.03-.17-.02-.86.02-.05.04-.04.05.05.01.07v.9l.02.09.14.08.27.06.98.07 1.7-.06 2.69.01.42-.09.29-.19.51-.55.38-.46.12-.28.16-.82.05-.8.18-1.13.16-1.06v-.45l-.03-.69.04-.26.15-.19.24-.19.27-.19.11-.12.05-.16.01-.13v-.23l.03-.13-.03-.45-.02-2.57.01-3.83v-8.31l.04-8.2-.15-16.91-.16-24.76-.13-7.65-.02-.05-.01-.04.02-.03.02-.01.02.03.15 7.73.19 24.78.18 16.91.03 8.19v8.33l.07 3.84.04 2.28.04.64.02.37-.02.28-.01 1.71v1.07l.08.39.3.28.18.11.19.02.15-.01.1.01.08.05.07.07.04.09.01.1-.01.09-.05.09-.06.06-.08.05-.23.05v.1l-.02.11-.08.1-.16.1-.12.11-.1.18-.06.31-.02.35-.03 2.58.04.28.04.49-.07.37-.11.38-.14.26-.05.23-.13.2.1.14.04.16-.1.1.34.89.41-.24v-.04l.27-.2.08.01.03.07-.01.1-2.04 3.9v1.26l-.54 1.17-1.57.93-.65 1.33.01.19.67.65.04.04.01.03.21.08.32.12 2.2-4.22 4.65-2.92.52-.99.69-1.29-2.02-.96.48-2.68.07.01-.04.2 1.64.32.24.04.14-.1.66-1.31-.07-.17-1.81-1.07.1-.17.1-.17-2.36-1.2-.1-.1-.04-.12.01-.13.05-.11.08-.09.14-.06.15.02.1.04.29.16.09-.08.1-.03.17-.01.21.05 5.23 2.75.36.34.19.47.05 1.55.12.11.18.04 2.15-.06-.17 1.33.24 1.12 1.03 1.39 2.16 1.38 2.8 1.34 2.5 1.91 7.2 2.26 14.39 3.33 13.15.96 21.48-.39 8.11-1.31v-308.24h-2532.21v1073.27h598.16z"/>
		<g>
			<path d="m992.98 299.4 4.38.2 4.49.54 5.43.99 8.69 2.49 9.26 2.71 9.37 2.74 3.45.28 2.15-.29 2.51-.63 2.28-.75 2.93-1.46 4.07-3.82 3.16-4.02.44-3.47 1.02-3.41 1.87-8.96 12.89-.36.16-2.05 15.78-.29.06 2.1 8.11.05-.04 8.25 117.89-1.07 16.4-.82 1.81.6 6.72-.48 3.92.23 2.61-.86.11-.84.27-.61.16-.02.18.05 1.45.92 4.76-.16 2.36-1.15 1.22-.87 1.22-.61.73-.31.76-.27 1.81-.03 2.7-.78 2.76-.89.1-.77.3-.47.39.02.36.16 1.47-.32 1.93.31 3.34-.91 6.25-2.53 2.59-.18 1.71-.51 5.13-1.37 3.72-1.01 5.85-.94 2.86-1.25 2.58-1.54 3.43-.75 3.83-.78 1.64.37h1.59l1.68-.08 1.03-.84 1.43-1.63 1.66-.81 1.39.17 2.29-.54 5.97-1.83 2.11.01 2.93-.39 3.51-1.36 3.27-2.53 1.69.13 1.91.86 2.87-1.15 4.15-.58 3.91-2.52 1.06-1.27 1.92-.53 9.46-1.15 7.3 1.24 3.22-1.21 14.41-3.5 7.6-3.51 5.37-1.38 5.11-.6 4.22-1.75 2.39-2.39 1.92-1 2.82-.59 3.34-.85 6.93-6.24 3.79-4.39 10.67-4.43 7.18-2.87 5.19 3.26-.31 4.7.51.24 2.18-3.59 1.73-3.56.78-4.37-.67-3.67-1.13-2.97-.45-1.72-.8-2.14-.92-1.94-1.67-4.49.04-2.19.63-1.84 1.25-2.2.89-1.34 1.06-1.61-.02-1.65-2.99-2.35-2.97-.93-1.11-.05-4.55-4.33-3.72-2.88-3.83-1.76-9.92-1.05-4.59-.54-4.5-.72-7.73.19-4.04-.26-6.17.74-4.32-.3-15.27 1.32-11.71 1.32-9.84.32-6.07 1.12-24.7 2.34-4.23.63-7.92.73-10.25.85-6.03.19-8.58 2.02-6.23 1.33-4.64.46-7.4.62-12.51 1.72-7.08 1.85-2.71-.12-6.16 1.06-.04-1.52 6.39-1.16 1.51-.67.37-.51-1.24-1.44-9.35.81-9.54.83-7.2 1.35-7.31 1.18-1.9.09-4.15-.08-2.5.12-3.27.81-3.17 1.27-5.85 1.35-6.09.1-3.57-.05-5.09 1.18-2.73.35-5.44.47-8.26.25-4.29.4-1.93.2-5.05.36-4.12-.04-2.59-.07-6.24.09-6.58-1.57-7.97-.17-2.13-3.22-1.58-.15-3.51.92-4.51.4-2.88-1.03-5.9.75-5.1.54-4.18.1-3.35.45-4.56.81-10.5.23-2.2.84-5.24-.1-3.75.03-4.56-1.1-5.14-.24-5.91-.06-7.88 1.2-6.72.17-1.78-1.01-4.79.15-4.27.26-4.64.38-5.52.68-1.92.36-2.59.83-4.27 1.28-2.98 1.1-4.45 2.47-2.91 1.43-21.91 6.77-6.93 2.59-7.29 2.93-6.3 3.7-6.56 3.48-6.81 3.66-6.21 3.35-6.89 3.52-5.69 3.28-6.33 2.91-3.66 1.86-.62-.14-.85-.11-.82.17h-.48l-.42-.4-6.05 2.98-6.17 3.25-6.73 3.86-5.15 3.74-1.27.98-2.38 1.98-2.13 1.64-2.21 1.36-1.37 1.55-1.67 1.28-.02 1.33-.84 1.35-.29 1.17v.72l-.3 1.1-.27 1.87.32 1.49-.01 2.06 1.03.85 2.38 4.52.46 1.74 1.26 1.45 1.15 1.84.79 3.11.88 1.47 2.39 3.02.83 1.95 1.06 2.42 1.5 2.47 1.07 1.6 1.26 1.62 1.18 1.04 2.76 1.15 1.79-.28 1.46.36 2.24 1.88.7.56 1.85 1.63 2.58 2.29 2.54 1.82 1.65.92 5.77 2.07 1.82 1.45.52.41 4.08-.47 11.48-1.33 2.37-.34 10.82-1.56 1.41.21.56.12.05.01.04-.01.04-.02.03-.03.02-.04.01-.04v-.04l-.02-.04-.03-.03-.03-.02-.04-.01-1.99-.45.02-.09-1.01-.17.06-.37 1.02.17.02-.1 3.17.5.21.02.22-.01.1-.03.11-.07.13-.12.11-.14.08-.15.06-.15.04-.2-.01-.18-.06-.2-.08-.12-.11-.11-.2-.15-3.58-2.41.28-.43-1.21-.8-.45-.26-1.05-.89-.78-1.13-.66-1.55-.48-1.31-.4-1.42-.12-1.35-.03-1.83.09-.66.33-1.52.28-1.08.24-.67.52-1.01.59-.65 1.18-1.27.91-.68.11.15-.17.13.05.06.43-.32-.05-.07-.19.14-.11-.15.68-.43 1.13-.41 4.37-1.18-.38-1.12-.47-.64.15-.14.14-.13-.44-1.93 4.65-1.15.43 2.49.71 3.8 1.42 7.75-.06.08-2.3.62-1.46.21-.19-.08-.8-4.04-.6-.76-.91-.3-1.49.52-1.53.48-.66.67-1.18 1.35-.88 2.08-.39 1.66.03 2.04.46 1.8.79 1.48 1.24 1.23 1.5 1.1 1.63.78.25-.08.02-.26-.18-.16-1.33-.8 1.64-2.81 2.25-2.35 2.28-1.83 2.57-1.42 2.55-.87 2.63-.33-2.02-13.7-.61-1.9-1.46-.96-.83-.19-.46-1.3-2.24-1.97-.2-1.64.62-2.58 1.83-2.22 3.02-1.74 4.51-.28 2.65.18 6.59 4.28 6.12 5.62 2.06 2.26 1.29 1.89 1.14 3.58.28 8.27.2 1.26.68.62z"/>
			<path d="m934.91 648.01-.57.05.69 9.43.01.49-.03.52-.08.53-.12.5-.14.43-.25.56-.56.96.49.29.44-.76.37-.74.46-1.66-.04-1.97-.12-1.75-.14-1.86-.13-1.74-.13-1.56-.11-1.27-.02-.23z"/>
		</g>
	</g>
</svg>